<svg width="916" height="680" viewBox="0 0 916 680" fill="none" xmlns="http://www.w3.org/2000/svg">
<g clip-path="url(#clip0_2508_82179)">
<path d="M662.63 1.24602L19.3472 201.132C4.84339 205.639 -3.26082 221.05 1.24592 235.554L116.972 607.99C121.479 622.494 136.89 630.598 151.394 626.091L794.676 426.205C809.18 421.698 817.284 406.287 812.778 391.783L697.051 19.3473C692.544 4.84349 677.133 -3.26071 662.63 1.24602Z" fill="url(#paint0_linear_2508_82179)"/>
<path d="M659.298 7.12762L30.2122 202.602C15.7084 207.109 7.60424 222.52 12.111 237.024L123.164 594.42C127.671 608.923 143.082 617.028 157.585 612.521L786.671 417.046C801.175 412.539 809.279 397.128 804.773 382.624L693.72 25.2289C689.213 10.7251 673.802 2.62089 659.298 7.12762Z" fill="white"/>
<path d="M702.345 52.9876L20.7365 264.783L39.0032 323.569L720.612 111.774L702.345 52.9876Z" fill="#38B2AC"/>
<path d="M334.83 473.819L161.647 527.631L169.546 553.053L342.729 499.24L334.83 473.819Z" fill="#BDBDBD"/>
<path d="M448.606 391.425L148.317 484.733L156.216 510.154L456.505 416.846L448.606 391.425Z" fill="#E0E0E0"/>
<path d="M888.188 233.836H210.458C195.27 233.836 182.958 246.148 182.958 261.336V651.776C182.958 666.964 195.27 679.276 210.458 679.276H888.188C903.376 679.276 915.688 666.964 915.688 651.776V261.336C915.688 246.148 903.376 233.836 888.188 233.836Z" fill="url(#paint1_linear_2508_82179)"/>
<path d="M877.533 238.378H218.777C203.589 238.378 191.277 250.69 191.277 265.878V640.13C191.277 655.318 203.589 667.63 218.777 667.63H877.533C892.72 667.63 905.033 655.318 905.033 640.13V265.878C905.033 250.69 892.72 238.378 877.533 238.378Z" fill="white"/>
<path d="M381.81 446.76H361.013V505.824H381.81V446.76Z" fill="#E0E0E0"/>
<path d="M408.43 446.76H387.633V505.824H408.43V446.76Z" fill="#E0E0E0"/>
<path d="M435.051 446.76H414.253V505.824H435.051V446.76Z" fill="#E0E0E0"/>
<path d="M481.636 446.76H460.839V505.824H481.636V446.76Z" fill="#E0E0E0"/>
<path d="M508.256 446.76H487.459V505.824H508.256V446.76Z" fill="#E0E0E0"/>
<path d="M534.877 446.76H514.079V505.824H534.877V446.76Z" fill="#E0E0E0"/>
<path d="M581.462 446.76H560.665V505.824H581.462V446.76Z" fill="#E0E0E0"/>
<path d="M608.082 446.76H587.285V505.824H608.082V446.76Z" fill="#E0E0E0"/>
<path d="M634.703 446.76H613.906V505.824H634.703V446.76Z" fill="#E0E0E0"/>
<path d="M681.288 446.76H660.491V505.824H681.288V446.76Z" fill="#E0E0E0"/>
<path d="M707.908 446.76H687.111V505.824H707.908V446.76Z" fill="#E0E0E0"/>
<path d="M734.529 446.76H713.731V505.824H734.529V446.76Z" fill="#E0E0E0"/>
<path d="M360.688 350.836H236.688V418.836H360.688V350.836Z" fill="#38B2AC"/>
<path opacity="0.1" d="M794.688 573.836H718.688V649.836H794.688V573.836Z" fill="#266AFB"/>
<path opacity="0.1" d="M832.688 573.836H756.688V649.836H832.688V573.836Z" fill="#266AFB"/>
</g>
<defs>
<linearGradient id="paint0_linear_2508_82179" x1="408.381" y1="628.502" x2="411.15" y2="-1.14251" gradientUnits="userSpaceOnUse">
<stop stop-color="#808080" stop-opacity="0.25"/>
<stop offset="0.53514" stop-color="#808080" stop-opacity="0.12"/>
<stop offset="1" stop-color="#808080" stop-opacity="0.1"/>
</linearGradient>
<linearGradient id="paint1_linear_2508_82179" x1="549.323" y1="679.276" x2="549.323" y2="233.836" gradientUnits="userSpaceOnUse">
<stop stop-color="#808080" stop-opacity="0.25"/>
<stop offset="0.53514" stop-color="#808080" stop-opacity="0.12"/>
<stop offset="1" stop-color="#808080" stop-opacity="0.1"/>
</linearGradient>
<clipPath id="clip0_2508_82179">
<rect width="915.688" height="679.276" fill="white"/>
</clipPath>
</defs>
</svg>
